<?xml version="1.0" standalone="no"?>
<!DOCTYPE svg PUBLIC "-//W3C//DTD SVG 20010904//EN"
 "http://www.w3.org/TR/2001/REC-SVG-20010904/DTD/svg10.dtd">
<svg version="1.0" xmlns="http://www.w3.org/2000/svg"
 width="700.000000pt" height="700.000000pt" viewBox="0 0 700.000000 700.000000"
 preserveAspectRatio="xMidYMid meet">
<metadata>
Created by potrace 1.14, written by Peter Selinger 2001-2017
</metadata>
<g transform="translate(0.000000,700.000000) scale(0.100000,-0.100000)"
fill="#000000" stroke="none">
<path d="M3260 6924 c-103 -7 -305 -36 -425 -60 -1255 -252 -2287 -1206 -2635
-2436 -44 -154 -81 -333 -107 -513 -25 -172 -24 -671 1 -835 56 -373 128 -636
251 -924 284 -665 791 -1243 1412 -1609 415 -245 786 -372 1323 -454 182 -27
674 -24 874 5 649 97 1172 317 1676 708 148 114 450 416 564 564 391 504 611
1027 708 1676 29 201 32 692 4 874 -29 193 -56 329 -87 450 -226 861 -789
1608 -1562 2074 -400 241 -801 381 -1307 457 -131 20 -542 33 -690 23z m634
-369 c240 -32 477 -91 689 -171 988 -373 1717 -1224 1932 -2256 48 -229 58
-345 58 -628 0 -283 -10 -399 -58 -628 -194 -935 -810 -1725 -1670 -2142 -306
-148 -601 -237 -957 -286 -171 -24 -603 -24 -776 0 -712 98 -1327 405 -1813
902 -473 484 -753 1060 -855 1759 -25 168 -25 609 0 783 96 692 382 1280 855
1765 532 545 1226 864 2006 921 107 8 476 -4 589 -19z"/>
<path d="M3080 4215 c-96 -75 -242 -187 -325 -250 -82 -63 -194 -148 -248
-190 -82 -64 -98 -73 -103 -58 -78 225 -204 377 -391 472 -133 67 -167 71
-575 71 l-368 0 0 -751 0 -750 388 3 c372 4 390 5 452 27 141 49 220 99 317
198 73 75 125 159 157 255 13 38 25 71 28 73 2 2 103 -73 223 -166 121 -94
279 -215 350 -269 72 -55 162 -125 202 -156 l72 -56 362 279 c198 153 390 299
425 325 l64 48 0 -280 0 -280 480 0 480 0 0 155 0 155 -315 0 -315 0 0 595 0
595 -175 0 -175 0 0 -278 0 -278 -32 -30 c-18 -17 -55 -48 -83 -69 -27 -22
-52 -42 -55 -45 -4 -5 -194 -158 -290 -235 -21 -16 -106 -86 -190 -153 -175
-142 -153 -139 -263 -38 l-68 62 184 142 c174 134 428 334 472 370 11 10 48
39 83 65 34 27 62 51 62 55 0 4 -26 27 -57 52 -31 25 -82 66 -112 92 -31 26
-60 48 -64 48 -5 0 -139 -102 -299 -227 -467 -366 -502 -393 -515 -390 -14 2
-161 129 -162 139 -1 7 15 20 384 298 295 223 398 301 408 310 7 6 -221 201
-234 200 -2 -1 -83 -61 -179 -135z m-1306 -275 c125 -39 229 -143 279 -280 30
-83 29 -244 -3 -325 -31 -79 -62 -128 -117 -182 -94 -91 -176 -115 -379 -111
l-149 3 -3 445 c-1 245 0 451 3 458 3 9 43 12 154 12 121 0 161 -4 215 -20z"/>
<path d="M5200 3510 l0 -750 485 0 486 0 -3 153 -3 152 -307 3 -308 2 0 595 0
595 -175 0 -175 0 0 -750z"/>
</g>
</svg>
