<svg width="800" height="800" viewBox="0 0 32 32" xmlns="http://www.w3.org/2000/svg"><path d="M8.999 3.567c.98 0 2.753.469 5.628 3.301l1.425 1.403 1.404-1.426c1.996-2.028 4.12-3.288 5.543-3.288 1.919 0 3.432.656 4.907 2.128a7.283 7.283 0 0 1 2.156 5.191 7.297 7.297 0 0 1-2.169 5.209c-.114.116-6.156 6.634-11.218 12.097a.944.944 0 0 1-.656.26.949.949 0 0 1-.65-.253C14.136 26.817 5.195 16.876 4.156 15.838a7.29 7.29 0 0 1-2.157-5.194c0-1.961.766-3.804 2.158-5.192C5.51 4.1 7.094 3.567 8.999 3.567zm0-2c-2.392 0-4.5.715-6.255 2.469a9.33 9.33 0 0 0 0 13.217c1.045 1.045 11.183 12.323 11.183 12.323.578.578 1.336.865 2.093.865s1.512-.287 2.091-.865c0 0 11.09-11.97 11.208-12.089a9.335 9.335 0 0 0 0-13.219C27.503 2.455 25.474 1.556 23 1.556c-2.364 0-5 1.885-6.969 3.885C14 3.441 11.446 1.567 9 1.567z"/></svg>