<svg width="36" height="37" fill="none" xmlns="http://www.w3.org/2000/svg"><path d="m19.38 3.415 9.765 5.304c1.14.62 1.14 2.387 0 3.007l-9.765 5.303c-.87.469-1.89.469-2.76 0l-9.765-5.303c-1.14-.62-1.14-2.388 0-3.007l9.765-5.304a2.886 2.886 0 0 1 2.76 0ZM5.415 15.307l9.075 4.578a3.385 3.385 0 0 1 1.845 3.007v8.644a1.664 1.664 0 0 1-2.415 1.496l-9.075-4.579A3.385 3.385 0 0 1 3 25.446v-8.643a1.664 1.664 0 0 1 2.415-1.496Zm25.17 0-9.075 4.578a3.385 3.385 0 0 0-1.845 3.007v8.644a1.664 1.664 0 0 0 2.415 1.496l9.075-4.579A3.385 3.385 0 0 0 33 25.446v-8.643a1.664 1.664 0 0 0-2.415-1.496Z" stroke="#fff" stroke-width="3" stroke-linecap="round" stroke-linejoin="round"/></svg>