<svg width="36" height="36" fill="none" xmlns="http://www.w3.org/2000/svg"><path d="M27 10.74a.908.908 0 0 0-.285 0 3.86 3.86 0 0 1-3.72-3.87A3.86 3.86 0 0 1 26.865 3a3.87 3.87 0 0 1 3.87 3.87A3.883 3.883 0 0 1 27 10.74Zm-1.545 10.92c2.055.345 4.32-.015 5.91-1.08 2.115-1.41 2.115-3.72 0-5.13-1.605-1.065-3.9-1.425-5.955-1.065M8.955 10.74a.908.908 0 0 1 .285 0 3.86 3.86 0 0 0 3.72-3.87A3.86 3.86 0 0 0 9.09 3a3.87 3.87 0 0 0-3.87 3.87 3.883 3.883 0 0 0 3.735 3.87ZM10.5 21.66c-2.055.345-4.32-.015-5.91-1.08-2.115-1.41-2.115-3.72 0-5.13 1.605-1.065 3.9-1.425 5.955-1.065M18 21.945a.908.908 0 0 0-.285 0 3.86 3.86 0 0 1-3.72-3.87 3.86 3.86 0 0 1 3.87-3.87 3.87 3.87 0 0 1 3.87 3.87c-.015 2.1-1.665 3.81-3.735 3.87Zm-4.365 4.725c-2.115 1.41-2.115 3.72 0 5.13 2.4 1.605 6.33 1.605 8.73 0 2.115-1.41 2.115-3.72 0-5.13-2.385-1.59-6.33-1.59-8.73 0Z" stroke="#fff" stroke-width="3" stroke-linecap="round" stroke-linejoin="round"/></svg>