<svg version="1.0" xmlns="http://www.w3.org/2000/svg" width="933.333" height="933.333" viewBox="0 0 700 700"><path d="M326 7.6c-10.3.7-30.5 3.6-42.5 6C158 38.8 54.8 134.2 20 257.2c-4.4 15.4-8.1 33.3-10.7 51.3-2.5 17.2-2.4 67.1.1 83.5 5.6 37.3 12.8 63.6 25.1 92.4 28.4 66.5 79.1 124.3 141.2 160.9 41.5 24.5 78.6 37.2 132.3 45.4 18.2 2.7 67.4 2.4 87.4-.5 64.9-9.7 117.2-31.7 167.6-70.8 14.8-11.4 45-41.6 56.4-56.4 39.1-50.4 61.1-102.7 70.8-167.6 2.9-20.1 3.2-69.2.4-87.4-2.9-19.3-5.6-32.9-8.7-45-22.6-86.1-78.9-160.8-156.2-207.4-40-24.1-80.1-38.1-130.7-45.7-13.1-2-54.2-3.3-69-2.3zm63.4 36.9c24 3.2 47.7 9.1 68.9 17.1C557.1 98.9 630 184 651.5 287.2c4.8 22.9 5.8 34.5 5.8 62.8 0 28.3-1 39.9-5.8 62.8-19.4 93.5-81 172.5-167 214.2-30.6 14.8-60.1 23.7-95.7 28.6-17.1 2.4-60.3 2.4-77.6 0-71.2-9.8-132.7-40.5-181.3-90.2-47.3-48.4-75.3-106-85.5-175.9-2.5-16.8-2.5-60.9 0-78.3 9.6-69.2 38.2-128 85.5-176.5 53.2-54.5 122.6-86.4 200.6-92.1 10.7-.8 47.6.4 58.9 1.9z"/><path d="M308 278.5c-9.6 7.5-24.2 18.7-32.5 25-8.2 6.3-19.4 14.8-24.8 19-8.2 6.4-9.8 7.3-10.3 5.8-7.8-22.5-20.4-37.7-39.1-47.2-13.3-6.7-16.7-7.1-57.5-7.1H107v150.1l38.8-.3c37.2-.4 39-.5 45.2-2.7 14.1-4.9 22-9.9 31.7-19.8 7.3-7.5 12.5-15.9 15.7-25.5 1.3-3.8 2.5-7.1 2.8-7.3.2-.2 10.3 7.3 22.3 16.6 12.1 9.4 27.9 21.5 35 26.9 7.2 5.5 16.2 12.5 20.2 15.6l7.2 5.6 36.2-27.9c19.8-15.3 39-29.9 42.5-32.5l6.4-4.8v56h96v-31h-63V274h-35v55.6l-3.2 3c-1.8 1.7-5.5 4.8-8.3 6.9-2.7 2.2-5.2 4.2-5.5 4.5-.4.5-19.4 15.8-29 23.5-2.1 1.6-10.6 8.6-19 15.3-17.5 14.2-15.3 13.9-26.3 3.8l-6.8-6.2 18.4-14.2c17.4-13.4 42.8-33.4 47.2-37 1.1-1 4.8-3.9 8.3-6.5 3.4-2.7 6.2-5.1 6.2-5.5 0-.4-2.6-2.7-5.7-5.2s-8.2-6.6-11.2-9.2c-3.1-2.6-6-4.8-6.4-4.8-.5 0-13.9 10.2-29.9 22.7-46.7 36.6-50.2 39.3-51.5 39-1.4-.2-16.1-12.9-16.2-13.9-.1-.7 1.5-2 38.4-29.8 29.5-22.3 39.8-30.1 40.8-31 .7-.6-22.1-20.1-23.4-20-.2.1-8.3 6.1-17.9 13.5zM177.4 306c12.5 3.9 22.9 14.3 27.9 28 3 8.3 2.9 24.4-.3 32.5-3.1 7.9-6.2 12.8-11.7 18.2-9.4 9.1-17.6 11.5-37.9 11.1l-14.9-.3-.3-44.5c-.1-24.5 0-45.1.3-45.8.3-.9 4.3-1.2 15.4-1.2 12.1 0 16.1.4 21.5 2zM520 349v75h97.1l-.3-15.3-.3-15.2-30.7-.3-30.8-.2V274h-35v75z"/></svg>