<svg width="20" height="20" fill="none" xmlns="http://www.w3.org/2000/svg"><g clip-path="url(#a)"><path fill="#fff" d="M0 0h20v20H0z"/><g clip-path="url(#b)"><path fill="#fff" d="M.767.767h18.4v18.4H.767z"/><path d="m18.942 17.858-4.576-4.576a7.679 7.679 0 1 0-1.084 1.084l4.576 4.576a.767.767 0 0 0 1.084-1.084ZM8.433 14.567a6.133 6.133 0 1 1 6.134-6.134 6.14 6.14 0 0 1-6.134 6.134Z" fill="#292D32"/></g></g><defs><clipPath id="a"><path fill="#fff" d="M0 0h20v20H0z"/></clipPath><clipPath id="b"><path fill="#fff" transform="translate(.767 .767)" d="M0 0h18.4v18.4H0z"/></clipPath></defs></svg>