<svg width="38" height="38" fill="none" xmlns="http://www.w3.org/2000/svg"><path d="m9.367 33.391-.597-.39-.68.216c-.413.132-.967.304-1.597.5-.881.274-1.91.593-2.907.913.114-.36.23-.728.344-1.094.436-1.397.887-2.88 1.001-3.55l.105-.611-.359-.507A17.27 17.27 0 0 1 1.5 18.856C1.5 9.271 9.27 1.5 18.856 1.5c9.585 0 17.356 7.77 17.356 17.356 0 9.585-7.77 17.356-17.356 17.356a17.268 17.268 0 0 1-9.489-2.82Z" stroke="#292D32" stroke-width="3"/><path d="M28.284 24.824c0 .34-.076.688-.236 1.028-.16.34-.368.66-.642.961-.463.51-.973.877-1.549 1.113a4.748 4.748 0 0 1-1.841.358c-.963 0-1.992-.226-3.078-.688a16.587 16.587 0 0 1-3.248-1.867 27.116 27.116 0 0 1-3.097-2.64 26.793 26.793 0 0 1-2.635-3.083c-.774-1.075-1.397-2.15-1.85-3.215-.454-1.074-.68-2.102-.68-3.083 0-.64.113-1.254.34-1.82a4.339 4.339 0 0 1 1.086-1.574c.604-.594 1.265-.886 1.964-.886.264 0 .528.057.764.17.246.113.463.283.633.528l2.19 3.083c.17.235.293.452.378.66.085.198.133.396.133.575 0 .226-.067.452-.199.67a3.208 3.208 0 0 1-.528.669l-.718.744a.504.504 0 0 0-.151.377c0 .076.01.142.028.217.028.076.057.132.076.189.17.311.462.716.878 1.207.425.49.878.99 1.369 1.49.51.499 1 .961 1.501 1.385.491.415.897.698 1.218.868.047.018.104.047.17.075a.653.653 0 0 0 .236.038.52.52 0 0 0 .387-.16l.718-.708a2.9 2.9 0 0 1 .68-.528c.217-.132.434-.198.67-.198.18 0 .368.038.576.123.208.085.425.207.661.368l3.125 2.215c.246.17.416.368.52.604.094.235.15.471.15.735Z" fill="#292D32"/></svg>